PathFileType	4	(X/Y/Z)	C:\Users\Basilio\Documents\Thesis Gigler\squatting_fais\c3dfiles\039\SJ_pre4\markers_experimental.trc
DataRate	CameraRate	NumFrames	NumMarkers	Units	OrigDataRate	OrigDataStartFrame	OrigNumFrames
200.000000	200.000000	4	63	mm	200.000000	1341	1788
Frame#	Time	FHD			LBHD			RBHD			C7			T10			CLAV			LSHO			LUUPA			LMUPA			LDUPA			LLEP			LMEP			LRAD			LUL			LRFIN			RSHO			RUPA1			RMUPA			RDUPA			RLEP			RMEP			RRAD			RUL			RUFIN			LASI			RASI			USACR			LSACR			RSACR			LTHI1			LTHI2			LTHI3			LTHI4			LLFC			LMFC			LTIB1			LTIB2			LTIB3			LTIB4			LLMAL			LMMAL			LHEE			LMT1			LMT2			LMT5			RTHI			RTHI2			RTHI3			RTHI4			RLFC			RMFC			RTIB1			RTIB2			RTIB3			RTIB4			RLMAL			RMMAL			RHEE			RMT1			RMT2			RMT5			*61			*62			
		X1	Y1	Z1	X2	Y2	Z2	X3	Y3	Z3	X4	Y4	Z4	X5	Y5	Z5	X6	Y6	Z6	X7	Y7	Z7	X8	Y8	Z8	X9	Y9	Z9	X10	Y10	Z10	X11	Y11	Z11	X12	Y12	Z12	X13	Y13	Z13	X14	Y14	Z14	X15	Y15	Z15	X16	Y16	Z16	X17	Y17	Z17	X18	Y18	Z18	X19	Y19	Z19	X20	Y20	Z20	X21	Y21	Z21	X22	Y22	Z22	X23	Y23	Z23	X24	Y24	Z24	X25	Y25	Z25	X26	Y26	Z26	X27	Y27	Z27	X28	Y28	Z28	X29	Y29	Z29	X30	Y30	Z30	X31	Y31	Z31	X32	Y32	Z32	X33	Y33	Z33	X34	Y34	Z34	X35	Y35	Z35	X36	Y36	Z36	X37	Y37	Z37	X38	Y38	Z38	X39	Y39	Z39	X40	Y40	Z40	X41	Y41	Z41	X42	Y42	Z42	X43	Y43	Z43	X44	Y44	Z44	X45	Y45	Z45	X46	Y46	Z46	X47	Y47	Z47	X48	Y48	Z48	X49	Y49	Z49	X50	Y50	Z50	X51	Y51	Z51	X52	Y52	Z52	X53	Y53	Z53	X54	Y54	Z54	X55	Y55	Z55	X56	Y56	Z56	X57	Y57	Z57	X58	Y58	Z58	X59	Y59	Z59	X60	Y60	Z60	X61	Y61	Z61	X62	Y62	Z62	X63	Y63	Z63	

1342	6.705	-106.2686767578125	1772.47412109375	-825.4497070312502	-222.044662475586	1705.773315429688	-974.6883544921877	-229.0734252929688	1717.609375	-834.542419433594	-253.853744506836	1565.59619140625	-897.907653808594	-281.5337829589844	1249.7529296875	-895.7620849609377	-108.5338211059571	1495.002685546875	-896.9453125000002	-168.045150756836	1541.143920898438	-1085.5625	-257.1109619140626	1400.017578125	-1244.720092773438	-220.4134063720704	1366.057373046875	-1246.5751953125	-259.3057861328126	1344.429321289063	-1287.537719726563	-255.6324768066407	1277.955444335938	-1315.197143554688	-332.0668945312501	1262.398803710938	-1271.712280273438	-246.1886444091797	1041.595947265625	-1140.446899414063	-195.5545349121094	1022.544860839844	-1194.961791992188	-194.0448608398438	1047.409057617188	-1090.9091796875	-142.1465301513672	1545.271728515625	-705.9307861328126	-258.7605895996094	1429.250244140625	-550.4103393554689	-227.759262084961	1391.542724609375	-537.4083862304689	-276.4315185546876	1379.006469726563	-504.697723388672	-273.2997436523438	1314.095947265625	-474.201629638672	-349.5955810546876	1302.886352539063	-518.9509887695314	-246.1122131347657	1097.556396484375	-678.1358642578126	-228.2409973144532	1053.385498046875	-617.7570190429689	-186.3472290039063	1074.143188476563	-719.3751220703126	-123.6835632324219	1051.82177734375	-1005.972900390625	-127.3537826538086	1043.93994140625	-783.6683349609377	-302.0865478515626	1121.266845703125	-892.1544189453127	-308.4206237792969	1091.537719726563	-921.3953247070315	-309.7604064941407	1090.666259765625	-862.4338989257815	-194.0542449951172	777.4796142578127	-1083.715942382813	-160.6996459960938	699.7363281250001	-1087.267211914063	-112.5921783447266	702.8180541992189	-1080.500854492188	-186.3699798583985	646.4327392578126	-1076.303955078125	-188.7391204833985	524.8804321289064	-1076.009765625	-155.073486328125	495.1845092773439	-963.751892089844	-155.572738647461	370.5595092773438	-1058.77783203125	-230.6685485839844	342.7674560546876	-1097.152099609375	-191.3994598388672	331.0039062500001	-1082.027954101563	-205.7781677246094	251.2174377441407	-1044.781616210938	-303.8826599121094	100.600570678711	-1071.789428710938	-276.6875915527344	95.30993652343751	-988.103698730469	-369.9254455566407	42.27495956420899	-1026.123046875	-135.7286376953125	53.9418411254883	-1047.756591796875	-149.4874725341797	53.07005691528322	-1089.554443359375	-199.8895721435547	30.71848297119141	-1134.285888671875	-186.9272613525391	783.1820068359377	-695.9859619140626	-145.8645172119141	731.1145019531251	-685.8300170898439	-113.6578369140625	734.6423950195314	-691.0434570312501	-170.4622039794922	648.8184204101564	-689.0396118164064	-202.6885986328126	510.833709716797	-701.7199707031251	-154.0453491210938	486.2257080078126	-806.8319091796877	-196.8849029541016	297.7359924316407	-693.8215942382814	-292.1172180175782	246.8229980468751	-692.9926147460939	-248.554916381836	230.9763336181641	-685.0649414062501	-235.1793670654297	177.8617706298828	-711.1529541015626	-317.5599060058594	96.11073303222659	-690.5328369140626	-274.6903381347657	99.89504241943362	-770.4138183593752	-376.7761535644532	44.13854217529298	-745.3325805664064	-146.4253692626953	50.57999420166017	-704.3521728515626	-159.1958770751953	55.66052627563478	-659.7776489257814	-220.375473022461	30.72304344177247	-617.2777099609376	nan	nan	nan	nan	nan	nan	
1343	6.71	-106.6542282104492	1771.962036132813	-825.1447753906252	-222.0132446289063	1706.06298828125	-974.1802368164065	-229.5818939208985	1717.981567382813	-833.783142089844	-254.3794860839844	1565.828491210938	-897.286804199219	-281.8713378906251	1249.911010742188	-895.577087402344	-109.0747528076172	1495.353271484375	-896.3718261718752	-168.5308990478516	1541.406616210938	-1084.953735351563	-257.6693115234376	1400.665283203125	-1244.294555664063	-220.1871032714844	1366.680786132813	-1246.844360351563	-259.8543090820313	1345.00634765625	-1287.173217773438	-256.0551147460938	1278.533813476563	-1314.846435546875	-332.4578247070313	1262.937866210938	-1271.377563476563	-244.6515655517579	1041.98974609375	-1139.884155273438	-195.3307647705079	1023.1328125	-1194.468872070313	-194.167709350586	1047.88525390625	-1090.713500976563	-142.908432006836	1545.284301757813	-705.3065185546876	-259.5906677246094	1429.32666015625	-550.1299438476564	-228.7173614501954	1391.502807617188	-536.9026489257814	-277.2312011718751	1378.981811523438	-504.4083862304689	-274.3580627441407	1314.054321289063	-473.9251708984376	-350.5131225585938	1302.770629882813	-518.8673095703126	-246.4286041259766	1097.715454101563	-678.0273437500001	-228.6403350830079	1053.545288085938	-617.7402954101564	-186.6201171875	1074.380615234375	-719.1995849609376	-123.9068298339844	1052.092651367188	-1005.639099121094	-127.5808181762696	1044.026489257813	-783.3656005859377	-302.3283996582032	1121.407348632813	-892.0662841796877	-308.4968261718751	1091.707397460938	-921.3123779296877	-309.9499816894532	1090.800170898438	-862.3011474609377	-194.1596832275391	777.7530517578127	-1083.557373046875	-160.8895263671875	700.0310668945314	-1087.06396484375	-112.7847747802735	702.9088745117189	-1080.1875	-186.6297302246094	646.6569824218751	-1076.20751953125	-189.2479553222657	525.1430053710939	-1075.91552734375	-155.9028015136719	495.2320861816407	-963.7486572265627	-155.7948760986328	370.7379760742188	-1058.788696289063	-231.0105895996094	343.1383361816407	-1097.035400390625	-191.1898345947266	331.2321472167969	-1082.321655273438	-206.1121215820313	251.4103698730469	-1044.672241210938	-303.9619445800782	100.6433410644532	-1071.761962890625	-276.7685241699219	95.32266998291017	-988.1352539062502	-369.9343261718751	42.3050765991211	-1026.129516601563	-135.76220703125	53.57917404174806	-1048.013793945313	-149.4782867431641	53.11928176879884	-1089.561279296875	-199.8829498291016	30.73808288574219	-1134.272583007813	-187.2493286132813	783.2930297851565	-695.9782104492189	-146.3306732177735	731.1783447265626	-685.8330688476564	-114.0135269165039	734.7857055664064	-690.8724975585939	-171.0239410400391	648.8299560546876	-689.0166015625001	-203.0372009277344	510.9475708007814	-701.7454833984376	-154.1851501464844	486.3796386718751	-806.8057250976565	-197.0503387451172	297.7043762207032	-693.8068237304689	-292.1144409179688	246.8542022705079	-693.0208740234376	-248.7021789550782	231.032943725586	-685.0405883789064	-235.2255859375001	177.8835144042969	-711.1839599609376	-317.5108947753907	96.05601501464847	-690.6141357421876	-274.7102050781251	99.91970062255862	-770.3984375000002	-376.7296142578126	44.05123138427735	-745.3060913085939	-146.4463195800782	50.58348083496095	-704.3319702148439	-159.189682006836	55.69512176513673	-659.8002319335939	-220.3657989501954	30.72566604614259	-617.3231811523439	nan	nan	nan	nan	nan	nan	
1344	6.715	-106.9129257202149	1771.876831054688	-824.5389404296877	-222.3331756591797	1706.42431640625	-973.3809814453127	-230.0223388671876	1718.1962890625	-833.2506103515627	-254.8078155517579	1565.880493164063	-896.8523559570315	-282.1769714355469	1250	-895.3328857421877	-109.4923324584961	1495.5576171875	-895.9166259765627	-169.0066528320313	1542.01123046875	-1084.556640625	-258.2076416015626	1401.26513671875	-1243.884765625	-220.5198669433594	1367.176513671875	-1246.55224609375	-260.2814941406251	1345.514526367188	-1286.740478515625	-256.4824523925782	1279.219604492188	-1314.571899414063	-332.8541259765626	1263.499267578125	-1271.085205078125	-244.9125061035157	1042.457641601563	-1139.77197265625	-195.2534942626954	1023.75244140625	-1194.430297851563	-194.1830139160157	1048.33056640625	-1090.556274414063	-143.5368804931641	1545.334106445313	-704.7551879882814	-260.3658752441407	1429.310668945313	-549.6129760742189	-229.4188385009766	1391.39208984375	-536.8117675781251	-277.9998779296876	1378.87890625	-504.0955810546876	-275.0937500000001	1313.999877929688	-473.7622985839845	-351.5004882812501	1303.178955078125	-518.8505859375001	-246.7237854003907	1097.831665039063	-677.8888549804689	-229.1473693847657	1053.6240234375	-617.5050659179689	-186.8579711914063	1074.496948242188	-719.0503540039064	-123.8511581420899	1052.3603515625	-1005.55126953125	-127.8218841552735	1044.074462890625	-783.086853027344	-302.6274414062501	1121.586669921875	-891.9440917968752	-308.6658325195313	1091.830200195313	-921.2968750000002	-310.1158142089844	1090.879272460938	-862.2014770507815	-194.3057403564454	778.110290527344	-1083.370727539063	-161.1221923828125	700.3160400390626	-1086.965209960938	-112.9650573730469	703.0900268554689	-1079.865600585938	-187.0465850830078	646.9336547851564	-1076.1025390625	-189.7992401123047	525.3397216796876	-1075.753295898438	-156.3985748291016	495.5901794433595	-963.6473388671877	-156.1925048828125	370.8601074218751	-1058.709350585938	-231.5616455078126	343.1142578125001	-1096.965942382813	-191.6336212158203	331.5393676757813	-1082.308227539063	-206.4295501708985	251.4932708740235	-1044.72705078125	-304.0556335449219	100.6366577148438	-1071.790649414063	-276.7237243652344	95.25388336181642	-988.1552734375002	-370.1169128417969	42.00222778320313	-1026.193237304688	-135.7204895019532	53.59764480590822	-1048.03466796875	-149.4592895507813	53.14812088012697	-1089.529174804688	-199.9048156738282	30.76852035522462	-1134.278442382813	-187.5831298828125	783.5457763671877	-695.8790283203126	-146.8182830810547	731.1948852539064	-685.7651367187501	-114.4269561767578	734.8717651367189	-690.5834350585939	-171.5352935791016	648.9624023437501	-689.0184936523439	-203.4100341796876	510.9736633300782	-701.8238525390626	-154.5735168457032	486.5286560058595	-806.874206542969	-197.2687225341797	297.7156372070313	-693.8161621093751	-292.6671752929688	246.5990753173829	-693.0974121093751	-248.7846984863282	231.0848236083985	-685.0396728515626	-235.2683563232422	177.9164123535157	-711.1225585937501	-317.4708557128907	96.00264739990237	-690.7398071289064	-274.1551513671876	99.64812469482425	-770.252868652344	-376.7928161621094	44.10182571411134	-745.3265991210939	-146.6604461669922	50.96328353881837	-704.3615722656251	-159.1770935058594	55.6986656188965	-659.7818603515626	-220.4021301269532	30.63114738464356	-617.2735595703126	nan	nan	nan	nan	nan	nan	
1345	6.72	-107.3055419921875	1772.377685546875	-823.3714599609377	-222.5277709960938	1706.781616210938	-972.7027587890627	-230.3213043212891	1718.290893554688	-832.831970214844	-255.3015594482422	1566.094482421875	-896.4074707031252	-282.5109252929688	1250.193237304688	-894.9766235351565	-109.8171844482422	1495.81103515625	-895.579284667969	-169.5740051269532	1542.478393554688	-1083.98046875	-258.5027770996094	1401.8740234375	-1243.509399414063	-221.2462310791016	1367.79833984375	-1245.939575195313	-260.7406005859376	1345.998657226563	-1286.391479492188	-257.0899658203126	1279.793823242188	-1314.48046875	-333.3384399414063	1264.067016601563	-1270.78369140625	-246.356430053711	1043.178955078125	-1140.0595703125	-195.5935211181641	1024.268310546875	-1194.610229492188	-194.2389221191407	1048.81982421875	-1090.348510742188	-144.1801452636719	1545.52099609375	-704.2848510742189	-261.1839599609376	1429.215087890625	-549.2531127929689	-230.1822662353516	1391.465942382813	-536.5292968750001	-278.8009948730469	1378.796752929688	-503.7952575683595	-275.9343261718751	1313.91455078125	-473.5343627929689	-352.1245727539063	1302.6708984375	-518.5119018554689	-247.0854644775391	1098.00927734375	-677.7661132812501	-229.7610321044922	1053.728881835938	-617.3261718750001	-187.1473541259766	1074.640991210938	-718.8576660156251	-123.6979598999024	1052.76416015625	-1005.47412109375	-128.0621185302735	1044.391479492188	-782.9254150390627	-302.7550354003907	1121.697631835938	-891.8563232421877	-308.7878112792969	1091.978637695313	-921.145935058594	-312.9309692382813	1091.3671875	-862.6567382812502	-194.4547119140626	778.3869628906252	-1083.24267578125	-161.423812866211	700.4847412109376	-1086.810302734375	-113.25830078125	703.3217163085939	-1079.572021484375	-187.4259033203125	647.2152709960939	-1075.958251953125	-190.3533477783203	525.5540161132814	-1075.562622070313	-157.4016571044922	495.4380493164064	-963.669372558594	-156.8229675292969	371.0777282714844	-1058.564453125	-229.8296203613282	343.5301513671876	-1098.076171875	-190.5207824707032	332.4880981445313	-1083.039916992188	-206.8425445556641	251.7102813720704	-1044.611328125	-304.0442810058594	100.6619415283203	-1071.80859375	-276.8043823242188	95.34449768066408	-988.188171386719	-370.1040344238282	41.97364807128907	-1026.20458984375	-135.82421875	53.94052124023439	-1047.792236328125	-149.4490966796875	53.15225219726564	-1089.54638671875	-199.8884429931641	30.76333236694337	-1134.283081054688	-187.9452056884766	783.6988525390627	-695.8370971679689	-147.1863403320313	731.1569824218751	-685.6130981445314	-114.9898681640625	734.8784179687501	-690.3642578125001	-171.9454498291016	648.9868774414064	-689.0272216796876	-203.7733306884766	511.0949096679689	-701.8712158203126	-154.9122772216797	486.7082824707032	-806.848327636719	-197.4303436279297	297.8178710937501	-693.7565307617189	-292.8174133300782	246.6200866699219	-693.1456909179689	-248.9676361083985	231.1490173339844	-684.9741821289064	-235.3404846191407	177.8778533935547	-711.1495361328126	-317.4719848632813	95.9856643676758	-690.7375488281251	-274.7630004882813	99.89770507812503	-770.326843261719	-376.5483398437501	43.69760894775391	-745.4432373046876	-146.6478271484375	50.96863174438478	-704.3459472656251	-159.1695404052735	55.70519256591798	-659.7749633789064	-220.4231567382813	30.71457099914551	-617.2929687500001	nan	nan	nan	nan	nan	nan	
